PathFileType	4	(X/Y/Z)	Patient4_TMGait_0pt8_01_right_23.trc.trc
DataRate	CameraRate	NumFrames	NumMarkers	Units	OrigDataRate	OrigDataStartFrame	OrigNumFrames
86.419753086420	86.419753086420	4	33	mm	86.419753086420	53	       141
Frame#	Time	Sacral			L.Shoulder			Chest			R.Shoulder			Neck			R.ASIS			L.ASIS			R.Thigh.Superior			R.Thigh.Lateral			R.Thigh.Inferior			R.Patella			L.Thigh.Superior			L.Thigh.Lateral			L.Thigh.Inferior			L.Patella			L.Shank.Superior			L.Shank.Lateral			L.Shank.Inferior			R.Shank.Superior			R.Shank.Lateral			R.Shank.Inferior			R.Heel			R.Midfoot.Superior			R.Midfoot.Lateral			R.Toe			L.Heel			L.Midfoot.Lateral			L.Midfoot.Superior			L.Toe			L.Elbow			L.Wrist			R.Elbow			R.Wrist			
		X1	Y1	Z1	X2	Y2	Z2	X3	Y3	Z3	X4	Y4	Z4	X5	Y5	Z5	X6	Y6	Z6	X7	Y7	Z7	X8	Y8	Z8	X9	Y9	Z9	X10	Y10	Z10	X11	Y11	Z11	X12	Y12	Z12	X13	Y13	Z13	X14	Y14	Z14	X15	Y15	Z15	X16	Y16	Z16	X17	Y17	Z17	X18	Y18	Z18	X19	Y19	Z19	X20	Y20	Z20	X21	Y21	Z21	X22	Y22	Z22	X23	Y23	Z23	X24	Y24	Z24	X25	Y25	Z25	X26	Y26	Z26	X27	Y27	Z27	X28	Y28	Z28	X29	Y29	Z29	X30	Y30	Z30	X31	Y31	Z31	X32	Y32	Z32	X33	Y33	Z33	

53	26.231714285714	893.767665592045	1009.483363181108	540.633767021389	1049.287024161996	1432.689935748202	340.882304154041	1165.640988705701	1370.832758365506	496.471954365772	1094.010130009433	1445.833727122212	675.333470753681	1041.211883848987	1499.218770115150	495.719962128538	1124.425029473336	950.758258688226	647.975253346122	1099.434955675957	966.731970255528	373.922822364051	1151.388043494109	742.951377178801	618.894153279958	1060.298977654903	636.584328604468	675.042320763135	1134.268505538179	580.811135030046	596.847130362832	1126.364074015528	494.018967076148	600.147506513938	1191.016328845398	794.676262054568	399.366013108639	1153.309277182023	666.822352022834	317.356632252965	1263.201140339559	611.043156097766	372.104014668873	1285.365939539802	527.082777584617	361.907312775658	1234.378251375058	452.019249605251	352.922128322366	1106.935927122674	375.975321175949	307.877812429743	1134.061542013638	245.276343501990	354.772668005916	1097.389342738731	406.755177042115	602.769329086763	1020.981934479693	302.834009357765	657.392632658690	1064.187970972770	208.990885860857	592.735085906184	927.202384652019	46.703516323029	550.587748653852	1099.092304744783	98.287315373040	595.008253568432	1008.127156995609	38.313607895674	627.708659344613	1216.542316051408	40.353976000977	624.856948790667	972.076458482179	129.926030352311	398.994445445267	1033.012301367265	106.016648446113	312.077615747063	1134.060932307486	139.374750158837	328.704012714647	1234.773775846394	53.815604185498	286.827319766210	1048.643299541683	1071.355345275643	249.910048584549	1140.421901360068	828.441421432778	248.018027670091	1145.843563061470	1102.582327999851	804.628665415172	1364.194729963469	963.641885052498	803.294972319457	
54	26.243285714286	892.691920039264	1009.755647926970	541.567661210736	1047.874379295447	1432.383833406209	341.431916662784	1164.994951819291	1370.398132383752	496.359464384065	1094.605156721839	1445.728334524721	675.596697844726	1040.875849900144	1499.022064124366	496.191853243033	1123.361753711281	950.244695610593	648.066870064376	1097.155157038618	966.380026759347	374.193582938852	1147.646663011459	741.851803409750	618.497541787329	1055.414031849474	636.356208924265	675.176197243896	1128.128930933640	579.725319883637	596.762176474567	1119.123671284640	493.286337570962	600.001018992982	1189.201822918268	795.804358760563	399.479013869932	1152.729955375484	667.615517344067	317.192819233670	1262.534031274775	612.745303879816	372.369385560876	1286.397322647181	530.630063511586	361.871139157103	1239.522903430288	454.581678658379	352.542420450350	1117.680280315939	370.523145442059	306.908941809302	1153.439391819371	241.551887937249	353.567383256650	1089.635739005770	406.218313618102	602.712775986510	1012.788118418744	302.668378874712	657.587721536592	1055.383861348689	208.673183702966	592.738536704298	917.841478254729	46.501369621080	550.700455241130	1089.718546919637	98.240469250533	595.020323622561	998.738608701765	38.228912058144	627.794744066215	1207.149795192098	40.378729461988	624.857578103376	999.716461123357	115.650386270116	397.441060657986	1062.056354500412	95.876434001558	310.538110507963	1160.714998390074	135.651527053925	327.215993643325	1266.814742774365	56.802995166421	285.353726424973	1037.953717000905	1070.838146015080	251.570510537396	1113.448684254401	822.488058697018	249.162248629315	1156.784819966228	1105.144410823951	805.432275705805	1383.915610865406	981.725783657413	800.394501111571	
55	26.254857142857	891.676646549276	1009.869463088799	542.322529765962	1046.588581350385	1431.935222587861	341.866537196483	1164.425321402068	1369.784996254415	496.151231757247	1095.208810047380	1445.412854871716	675.747079188666	1040.589535070678	1498.628371951213	496.569160865332	1122.378541350866	949.566399674283	648.057094337649	1095.053440713528	965.759562348151	374.349459530872	1143.834745213492	740.563370319069	618.138247143684	1050.283270205664	636.055343500755	675.276456414402	1121.669911391880	578.540650170804	596.654618121985	1111.552192913649	492.504398993951	599.807070725988	1187.096251133769	796.185653800040	399.535959149237	1151.568504684594	667.820326087972	316.874127636147	1261.117429083433	613.597745020652	372.728155278827	1286.591987681867	533.543648584591	361.950491533901	1243.929187062809	456.864174378709	352.277860461474	1128.479167428246	365.072896854317	305.709247023406	1172.684722615065	238.467770082429	352.387978198760	1081.583292049680	405.646381357387	602.617828663725	1004.383531988690	302.425709581696	657.761742571418	1046.417656477786	208.312840346337	592.700981007764	908.455554284316	46.196431637210	550.811041355607	1080.289904437859	98.179298056335	595.011487527666	989.315880215164	38.121004295638	627.887992775084	1197.743977443605	40.442272838959	624.850455648700	1027.874707735794	102.654747253414	395.581667652485	1091.663841510689	86.872932699305	308.976561384292	1187.461127818020	132.868419052070	325.914041321951	1298.561109438710	60.880955935089	284.680641121398	1026.774687037542	1070.602606818871	252.792413299621	1086.908022829283	818.239203420533	250.364206042489	1167.463200045843	1107.848508865431	805.939193637493	1402.178930703090	1000.424555195419	797.106112968418	
56	26.266428571429	890.732199920535	1009.815438337701	542.908161692203	1045.421787163903	1431.345281638378	342.177607416715	1163.931559401162	1368.991194843381	495.835609420837	1095.827317996931	1444.884546092943	675.776210845494	1040.357987437892	1498.036690253859	496.855649498924	1121.494546352099	948.730771946783	647.944162012191	1093.172492236454	964.888986895176	374.374363014338	1139.972131771249	739.097683401452	617.828508967590	1044.935070074202	635.697942734105	675.361880561787	1114.926869169754	577.280059328474	596.538503246501	1103.696237754548	491.681407884616	599.587190634039	1184.742262745640	795.837672351211	399.549237737736	1149.897921499085	667.467967153678	316.369812239604	1259.056917575671	613.642432204515	373.133015369102	1286.051510260300	535.834687161101	362.130059893401	1247.641453501859	458.883492674986	352.128836910922	1139.278099134792	359.780544836804	304.306920938056	1191.594892556899	236.143036255824	351.284712856449	1073.264138551533	405.056952260795	602.505691684051	995.792395919065	302.125634753083	657.935694835801	1037.308727569662	207.925758045517	592.638412124769	899.044302740209	45.811485328079	550.918778202045	1070.811971723750	98.106310903237	594.990008494030	979.863364092615	37.996593368789	627.989971399948	1188.329697840316	40.539525345173	624.840589493092	1056.160377575275	91.192577297141	393.477596769255	1121.500707441521	79.196659562407	307.476132832385	1214.019709187211	131.143559713108	324.871621380547	1329.715428409703	66.071616208574	284.936280123037	1015.172926394430	1070.697327768973	253.598716345479	1061.029326913969	815.534811434647	251.627757120332	1177.872042559784	1110.660897331260	806.158655366981	1418.921555342871	1019.537680928167	793.487855590298	
